<?xml version="1.0" standalone="no"?><!DOCTYPE svg PUBLIC "-//W3C//DTD SVG 1.1//EN" "http://www.w3.org/Graphics/SVG/1.1/DTD/svg11.dtd"><svg t="1629281658064" class="icon" viewBox="0 0 1024 1024" version="1.1" xmlns="http://www.w3.org/2000/svg" p-id="2142" xmlns:xlink="http://www.w3.org/1999/xlink" width="200" height="200"><defs><style type="text/css"></style></defs><path d="M512 512m-512 0a512 512 0 1 0 1024 0 512 512 0 1 0-1024 0Z" fill="#FFDA44" p-id="2143"></path><path d="M682.203528 732.441905a11.034893 11.034893 0 0 1-13.455403-7.751482l-17.038634-63.620652a10.969078 10.969078 0 0 1 21.206884-5.630794l17.038635 63.547526a11.034893 11.034893 0 0 1-7.751482 13.455402z m-89.43455 61.792473a11.034893 11.034893 0 0 1-13.455402-7.751481l-20.768121-77.7342a10.969078 10.969078 0 0 1 21.133757-5.630794l20.841248 77.661073a10.969078 10.969078 0 0 1-7.751482 13.455402z m-112.177105-22.961936a10.8667 10.8667 0 0 1-13.382275-7.751482l-17.038635-63.547526a10.983703 10.983703 0 1 1 21.206885-5.70392l17.038634 63.547525a11.042205 11.042205 0 0 1-7.824609 13.455403z" fill="#FFFFFF" p-id="2144"></path><path d="M549.477683 646.809969c-191.154467 51.262158-358.542598 46.362637-371.559237-2.120688-9.140898-34.296651 60.476184-84.827537 169.728201-129.581376l-14.113547-52.651574a153.567093 153.567093 0 0 1 108.593873-188.083125l14.113547-3.802614a153.567093 153.567093 0 0 1 188.083125 108.593873l15.941727 59.671784c122.634293-19.159323 200.368492-15.356709 209.875026 20.402486 13.016639 48.483325-129.508248 136.382204-320.662715 187.571234z" fill="#FFFFFF" p-id="2145"></path><path d="M504.577591 474.814825c83.950011-28.08084 71.152753-29.250875 99.160465-34.735413 100.696137-19.890595 164.243662-23.254445 169.728201-2.632579 7.093337 26.25266-102.670571 78.465472-245.049204 116.637863s-263.550382 47.752053-270.570592 21.499393c-5.338285-19.890595 56.307934-54.699136 148.44819-87.021352 29.470256-10.310933 63.766907-4.533886 98.28294-13.747912z" fill="#DEF8FF" p-id="2146"></path><path d="M294.885382 643.190174m-18.391488 0a18.391488 18.391488 0 1 0 36.782975 0 18.391488 18.391488 0 1 0-36.782975 0Z" fill="#8ED420" p-id="2147"></path><path d="M422.96765 612.586446a18.281797 18.281797 0 1 1-12.943512 22.450046 18.362237 18.362237 0 0 1 12.943512-22.450046z" fill="#32C4EE" p-id="2148"></path><path d="M456.825537 318.834535l8.921517-2.34007a111.277641 111.277641 0 0 1 135.577805 79.928016l9.287153 34.662287c3.363851 12.504749 1.82818 19.013069-8.921517 27.130186 0 0-26.837678 23.327573-96.308505 41.975005-70.860244 18.939941-95.430979 9.433407-95.43098 9.433407-14.698565-2.120688-17.989288-6.581447-21.280011-19.013068l-9.287153-34.662287A111.387331 111.387331 0 0 1 456.825537 318.834535z" fill="#32C4EE" p-id="2149"></path><path d="M556.790402 603.299293m-18.428051 0a18.428051 18.428051 0 1 0 36.856102 0 18.428051 18.428051 0 1 0-36.856102 0Z" fill="#FF8F44" p-id="2150"></path><path d="M682.02071 562.201814m-18.391488 0a18.391488 18.391488 0 1 0 36.782975 0 18.391488 18.391488 0 1 0-36.782975 0Z" fill="#32C4EE" p-id="2151"></path><path d="M794.45376 501.689067m-18.428051 0a18.428051 18.428051 0 1 0 36.856102 0 18.428051 18.428051 0 1 0-36.856102 0Z" fill="#FF8F44" p-id="2152"></path><path d="M560.958652 378.798829a14.662001 14.662001 0 0 1 17.916161 10.310933l11.334714 42.413769a14.625437 14.625437 0 0 1-28.227095 7.605227l-11.407841-42.413768a14.676626 14.676626 0 0 1 10.384061-17.916161z" fill="#89DEF6" p-id="2153"></path></svg>